<?xml version="1.0" encoding="UTF-8" standalone="no"?>
<svg xmlns="http://www.w3.org/2000/svg" xml:space="preserve" version="1.1" y="0px" x="0px" enable-background="new 0 0 278 100" viewBox="0 0 278 100"><polygon points="43.3 68.2 43.3 68.2" fill="#58595B"/><path d="m53.7 64.8s-3.3 0.3-4.5-0.2l-0.9 2.1c0.7 0.7 0.5 2 0.5 2l0.5 1.1s-3.1 1.4-5.8 1.7c-2.2 0.2-5.3-0.8-5.3-0.8 0 0.9-0.2 1.9-0.8 2.2-0.5 0.3-1 1-1 1.8v1.5h-4.4s0.3-0.9 0.6-1.6 1.4-1.3 2-1.9c0.7-0.8 1.3-2.6 1.3-2.6s-1.2-1.1-4-4.1c-3-3.1-4.1-7.1-4.3-7.6-0.3-0.1-2.8-1-3.5-1.2-0.5-0.2-0.9 0-1 0 0.1 0.3 0.3 1.4 0.5 2.2 0.1 0.5 0.6 1 1 1.4s0.8 0.7 0.8 0.7l-0.4 0.8 1.8 1.1-1.1 3.5s-1.2-0.9-2.4-2.5c-0.8-1.1-1.7-3.3-2.7-7.9-0.3-1.3-0.1-2.5 0.8-2.4 0.4 0 4.1 0.6 4.1 0.6s1.9-2.7 2.5-3.7c0.8-1.2-0.6-5.8-1.6-5.8-0.3 0-0.4 0.4-0.3 0.9 0.4 0.1 0.7 0.5 0.7 0.9 0 0.5-0.4 0.9-0.9 0.9 0 0 0.2 1.6 0 1.8-0.2 0.3-1.6 0.7-2.2 0.7-0.8 0-1.6-1.7-2-2.6-0.3-0.9-1.5-5.1-1.8-6.6-0.2-1.1 0.3-2.6 0.7-3.1l-0.5-2.9 1.9 1.3-1-2.2 3 1.7c0.6-0.2 1.2-0.3 1.8-0.3 0.5 0 0.9 0 1.5 0.1 1 0.1 2.2 0.4 3.9 1.1l0.1-0.1s0.1 0.1 0.1 0.2c0.6 0.3 1.2 0.6 1.9 1 0.3 0.1 0.5 0.3 0.8 0.4s0.5 0.3 0.7 0.4c0 0 2 1.3 2.1 1.3 0.4 0.3 0.8 0.5 1.2 0.7 0.6 0.4 2.2 0.9 2.8 1.1 0.2 0.1 0.4 0.1 0.6 0.2 0 0 1.2 0.4 1.4 0 0.2-0.5 0.3-0.9 0.3-1.5s-0.5-3-0.5-3c-0.1 0-1.2-0.4-1.4-0.5-0.1 0-0.2-0.1-0.2-0.1-0.2-0.2-0.1-1.9 0.1-2.3s0.6-0.5 1.1-0.4l-1.2-5.9c-0.4-0.1-0.8-0.3-1-1-0.1-0.6 0.2-1.2 0.5-1.4-0.2-0.6-0.8-1.1-1.5-1.1h-0.3c-0.8 0.2-1.4 1-1.2 1.8 0.1 0.4 0.3 0.7 0.7 1 0.3 0.3 0.2 0.6 0.1 0.7s-0.2 0.2-0.3 0.2h-0.1c-0.7 0-1.3-1.2-1.4-1.8-0.3-1.4 0.7-2.8 2.1-3 0.7-0.1 1.4 0 1.9 0.4-0.1-0.6-0.4-2.2-0.4-2.2s0.8-0.2 1.1 1.8c0.1 0.5 0.3 1.7 0.3 1.9 0.4 0.1 1 0.4 1 1.3 0 0.5-0.1 0.7-0.5 1.1l1.3 6.4c0.8 0.3 1 0.4 1 0.4 0.4-1.4 1.6-4.3 2.9-6l0.1-1.6s0.4-0.1 0.4-0.4c0-0.2-0.5-0.4-0.5-0.4v-0.7l-0.7-0.2 0.7-2.2-0.3-0.2s-0.2-1.5 0.3-5c0.5-3.3 0.8-4.4 0.8-4.4l1.6 4.6 1.4-4.7 1.6 11.1c1.5 0.5 2.2 1.7 2.4 2.9 0.1 1.1-0.4 1.8-0.6 2.1l2 16s0.1 0.5 0.6 0.7c0.4 0.1 8.3 1.2 9.1 1.4 2.3 0.3 3.8 3.2 5.5 3.4 1.6 0.2 2.5-0.3 3.7-2.1s3.2-3.7 5.4-2.9c1.9 0.7 3 2.8 2.2 4-4.6 6.6 1 5.2 1 5.2s-1.1 1.4-3 1.1c-3.3-0.7-1.4-4.1-2.8-4.8-1.7-0.8-3.3 2.6-7.1 0.9 1.9 3.3-1.7 6.3 0.4 11.6l2.5 6.8h-2.8v0.6c0 0.6-0.3 1.1-0.9 1.4-0.5 0.3-1 1.6-1 1.6v1.7h-4.4l0.1-0.1s0.3-1 0.9-1.7c0.8-1 2.1-1.8 2.7-3.5h-7.3v0.6c0 0.6-0.3 1-0.9 1.4-0.7 0.5-1 1.6-1 1.6v1.7h-4.4l0.1-0.1s0.2-0.6 0.6-1.2 1.4-1.6 1.9-2c0.5-0.3 0.9-1.2 1-2l-4.9 1.1 0.2-1.2s-1-0.4-1.1-0.8c-0.3-1.3 1.7-1.8 0.9-5.4zm-10.4 3.4z" fill="#58595B"/><path d="m22.7 90c-0.2 0.2-0.2 0.3 0 0.5l0.3 0.2v0.1l-0.1 0.1h-0.1c-0.1 0-0.3-0.3-0.9-0.7-0.5-0.4-0.8-0.6-0.9-0.6v-0.1l0.1-0.2h0.1l0.3 0.2c0.2 0.1 0.4 0.1 0.5 0s0.3-0.4 0.6-0.8l0.5-0.7c0.2-0.3 0.5-0.7 0.7-0.9 0.2-0.3 0.3-0.6 0.3-0.9 0-0.4-0.3-0.8-0.5-1-0.3-0.2-0.7-0.3-1-0.3-0.4 0.1-0.8 0.3-1.1 0.8l-0.8 1.1c-0.4 0.5-0.7 1-0.8 1.2s-0.1 0.3 0.1 0.4l0.2 0.2v0.1l-0.1 0.2h-0.1c-0.1 0-0.3-0.3-0.7-0.6s-0.6-0.4-0.6-0.4c-0.1 0 0-0.1 0-0.1l0.1-0.1h0.1l0.2 0.2c0.2 0.2 0.4 0 0.4-0.1 0.1-0.1 0.7-0.9 0.7-1 0.1-0.1 0.8-1.1 1-1.3 0.4-0.5 0.8-0.7 1.4-0.8 0.4 0 0.9 0.1 1.4 0.4 0.3 0.2 0.6 0.5 0.8 0.8 0.2 0.4 0.3 0.9 0.1 1.3-0.1 0.3-0.4 0.7-1 1.5l-1.2 1.3z" fill="#58595B"/><path d="m18 84.7c0.9-0.9 1.6-1.7 1.7-1.9 0.2-0.3 0.3-0.5 0.1-0.7l-0.1-0.1v-0.1l0.1-0.1h0.1l0.6 0.6c0.1 0.1 0.5 0.5 0.6 0.5v0.1l-0.1 0.1h-0.1l-0.2-0.1c-0.1-0.1-0.3-0.1-0.7 0.2-0.1 0.1-0.9 0.8-1.7 1.7l-0.7 0.7c-0.3 0.3-0.4 0.7-0.1 1l0.2 0.2v0.1l-0.1 0.1h-0.1l-0.2-0.2-0.5-0.5-0.2-0.2c-0.1-0.1-0.1-0.1-0.2-0.1-0.1-0.1-0.1-0.1-0.1-0.2s0.2-2.4 0.3-2.7c0-0.2 0.2-2 0.2-2.2l-0.5 0.6-1 1c-0.2 0.2-0.7 0.8-0.7 0.9-0.1 0.2 0 0.4 0.1 0.5l0.2 0.2v0.1l-0.1 0.1h-0.1l-0.6-0.6c-0.3-0.3-0.5-0.4-0.5-0.5v-0.1l0.1-0.1h0.1l0.2 0.1c0.1 0.1 0.2 0.1 0.5-0.1 0.4-0.3 1.3-1.2 1.8-1.7l1.4-1.4c0.1-0.1 0.1-0.2 0.2-0.1s0.1 0.2 0.1 0.3 0 0.7-0.1 1.4c-0.1 0.8-0.1 1.7-0.2 1.9 0 0.1-0.2 2.1-0.2 2.2l0.5-0.9z" fill="#58595B"/><path d="m13.7 78.8c0.1 0 1.4-1.2 1.4-1.2 0.2-0.2 0.1-0.3 0-0.4l-0.2-0.2v-0.1l0.1-0.1h0.1c0.1 0.1 0.2 0.3 0.7 0.9s0.7 0.8 0.8 0.9v0.1l-0.2 0.1h-0.1l-0.2-0.2c-0.1-0.1-0.2-0.2-0.4-0.1-0.1 0.1-1.3 1.1-1.6 1.3l-0.4 0.2c-0.1 0.1-1.2 1-1.2 1.1-0.1 0.1-0.1 0.2 0 0.4l0.2 0.3v0.1l-0.1 0.1h-0.1c-0.1-0.1-0.3-0.4-0.8-0.9-0.5-0.6-0.6-0.7-0.7-0.8v-0.1l0.1-0.1h0.1l0.2 0.2c0.1 0.1 0.2 0.2 0.3 0.1 0.1 0 1.3-1.1 1.4-1.1l0.6-0.5z" fill="#58595B"/><path d="m8.3 76.2s-0.1 0 0 0c-0.1-0.1-0.3-0.4-0.6-0.8-0.4-0.5-0.5-0.7-0.5-0.7v-0.1l0.2-0.1h0.1l0.1 0.1c0.1 0.3 0.2 0.4 0.6 0.4 0.5 0 1.7-0.3 2.2-0.4 0.4-0.1 2.7-0.5 2.8-0.6 0.1 0 0.1 0 0.2 0.1s0 0.2-0.1 0.2c-0.4 0.6-1.5 2-1.9 2.6-0.3 0.5-0.9 1.3-1.1 1.5-0.1 0.1-0.1 0.3 0 0.4l0.1 0.1v0.1l-0.1 0.1h-0.1c0-0.1-0.2-0.3-0.6-0.9l-0.6-0.9v-0.1l0.1-0.1h0.1l0.2 0.3c0.1 0.2 0.2 0.2 0.3 0.2l0.2-0.2c0.2-0.2 0.8-0.9 1-1.3 0.2-0.2 0.9-1.2 1.2-1.6-0.4 0.1-1.7 0.4-2 0.4-0.4 0.1-1.6 0.3-1.8 0.5-0.1 0.1-0.1 0.2 0 0.4l0.2 0.2v0.1l-0.2 0.1z" fill="#58595B"/><path d="m8.7 70.8c0.4-0.2 1-0.5 1.1-0.6 0.3-0.2 0.4-0.4 0.4-0.5s-0.1-0.3-0.2-0.5c0-0.2-0.2-0.5-0.3-0.6s-0.3-0.3-0.5-0.4-0.8-0.2-1-0.3c0 0-0.1 0-0.1-0.1v-0.1h0.1l1.2-0.2c0.1 0 0.1 0 0.2 0.1l0.3 0.6c0.2 0.4 0.6 1.1 1.1 2.2l0.3 0.6c0.1 0.1 0.1 0.2 0.2 0.3v0.1l-0.2 0.1h-0.1l-0.2-0.4c-0.2-0.3-0.2-0.3-0.5-0.2l-2.2 1.1c-0.5 0.3-1.4 0.7-1.5 0.8-0.2 0.1-0.2 0.2-0.1 0.4l0.1 0.3v0.1l-0.2 0.1h-0.1c-0.1-0.1-0.2-0.4-0.5-0.9l-0.1-0.2c-0.1-0.3-0.9-1.8-1.1-2.1-0.1-0.1-0.1-0.2-0.1-0.3v-0.1c0.1-0.1 0.9-0.8 0.9-0.8h0.1 0.3v0.1s-0.4 0.9-0.4 1.1 0 0.4 0.1 0.6l0.5 1 1.9-1c-0.1-0.2-0.4-0.7-0.4-0.7-0.1-0.1-0.2-0.2-0.4-0.2-0.1 0-0.3 0-0.4 0.1h-0.1l-0.1-0.2v-0.1c0.1 0 0.6-0.3 0.7-0.4 0.3-0.1 0.6-0.3 0.7-0.4h0.1l0.1 0.1v0.1l-0.3 0.3c-0.1 0.1-0.1 0.3-0.1 0.5 0.1 0.3 0.2 0.6 0.3 0.8l0.5-0.2z" fill="#58595B"/><path d="m6.7 65.7c0.4-0.2 1.2-0.4 1.3-0.5s0.2-0.2 0.2-0.3l-0.2-0.3v-0.1l0.2-0.1s0.1 0 0.1 0.1 0.1 0.2 0.3 1c0.3 0.7 0.4 0.8 0.4 0.9v0.1l-0.2 0.1h-0.1l-0.1-0.2c-0.1-0.2-0.1-0.3-0.3-0.2-0.7 0.2-1.4 0.5-2 0.7l-1.9 0.7c-0.2 0.1-0.3 0.2-0.3 0.4l0.1 0.3v0.1l-0.2 0.1h-0.1s-0.1-0.3-0.3-1c-0.1-0.4-0.4-1-0.5-1.2-0.2-0.6-0.2-1.1 0-1.4 0.1-0.3 0.4-0.6 0.7-0.7 0.9-0.3 1.4 0.1 1.8 0.8 0-0.2 0.1-0.4 0.2-0.5 0.2-0.5 0.7-1.1 0.7-1.2 0.1-0.1 0.5-0.7 0.6-0.9s0-0.4 0-0.5v-0.1l0.1-0.1h0.1c0 0.1 0.1 0.2 0.2 0.7 0.1 0.2 0.2 0.5 0.2 0.6s-0.2 0.3-0.3 0.5c-0.2 0.2-0.6 0.7-0.6 0.8-0.1 0.1-0.4 0.4-0.5 0.6-0.2 0.3-0.3 0.5-0.2 0.8 0 0 0.1 0.1 0.1 0.2l0.5-0.2zm-0.7 0.2c0-0.1 0-0.2-0.1-0.3-0.4-1.1-1.4-1-1.7-0.9s-0.6 0.4-0.7 0.6c-0.1 0.3-0.1 0.7 0 1 0 0.1 0.1 0.2 0.1 0.2h0.2l2.2-0.6z" fill="#58595B"/><path d="m5.5 61.1c0.3-0.1 0.5-0.2 0.8-0.5s0.4-0.7 0.3-1.1-0.5-0.9-1.1-0.7c-0.7 0.2-0.8 0.5-0.9 1.4 0 0.3-0.1 0.8-0.4 1.2-0.2 0.3-0.5 0.5-1 0.6-0.4 0.1-0.8 0-1.1-0.3-0.3-0.2-0.5-0.5-0.6-1s-0.1-0.8 0-1c0-0.1 0-0.1-0.1-0.1l-0.1-0.1s-0.1 0-0.1-0.1c0 0 0-0.1 0.1-0.1s1.1-0.4 1.2-0.4h0.1l0.1 0.1v0.1c-0.2 0.1-0.5 0.3-0.7 0.6-0.2 0.2-0.2 0.5-0.1 0.8 0.1 0.6 0.7 0.7 0.9 0.6s0.5-0.1 0.6-0.4c0.1-0.2 0.2-0.7 0.2-1 0-0.5 0.1-0.8 0.3-1.2 0.2-0.3 0.5-0.5 1-0.6 0.9-0.2 1.8 0.2 2 1.2 0.1 0.6 0.1 1-0.1 1.3 0 0.1-0.1 0.2 0 0.2 0 0 0.1 0.1 0.2 0.1 0 0.3 0 0.3 0.1 0.3 0 0.1 0 0.1-0.1 0.1s-1.3 0.2-1.4 0.2h-0.1v-0.2z" fill="#58595B"/><path d="m3.6 55.6c0.1 0 1.8-0.3 1.9-0.3 0.2 0 0.2-0.2 0.2-0.3v-0.3-0.1h0.2s0.1 0 0.1 0.1 0 0.4 0.1 1.1 0.2 1.1 0.2 1.1v0.1h-0.2l-0.1-0.1v-0.3c0-0.1-0.1-0.3-0.3-0.3-0.1 0-1.7 0.2-2.1 0.3l-0.5 0.1c-0.2 0-1.5 0.2-1.6 0.3-0.2 0-0.2 0.1-0.2 0.3l0.1 0.4v0.1h-0.2-0.1c0-0.1 0-0.5-0.1-1.2s-0.2-0.9-0.2-1c0 0 0-0.1 0.1-0.1h0.2s0.1 0 0.1 0.1v0.3c0 0.2 0.1 0.3 0.2 0.3s1.7-0.2 1.8-0.2l0.4-0.4z" fill="#58595B"/><path d="m0.7 51.9v0.2c0 0.2 0 0.8 0.1 1.1 0.1 0.2 0.6 0.5 0.9 0.6 0 0 0.1 0 0.1 0.1v0.2h-0.1l-1.4-0.3c-0.1 0-0.1-0.1-0.1-0.1s0-0.1 0.1-0.1c0.1-0.2 0.2-0.3 0.2-0.5v-1.5-0.4c0-0.8-0.1-1.1-0.1-1.5 0-0.1-0.1-0.4-0.2-0.5-0.2 0-0.2-0.1-0.2-0.1s0-0.1 0.1-0.1 1.1-0.2 1.4-0.3h0.1l0.1 0.1-0.1 0.1c-0.2 0.1-0.7 0.4-0.8 0.6s-0.1 0.9-0.1 1.2v0.2l4-0.2c0.6 0 0.7-0.1 0.7-0.3v-0.4h0.1 0.2s0.1 0 0.1 0.1v1.1c0 0.8 0.1 1.1 0.1 1.2 0 0 0 0.1-0.1 0.1h-0.2-0.1v-0.4c0-0.1-0.1-0.2-0.2-0.2-0.2 0-2.5 0.1-2.6 0.1l-2-0.1z" fill="#58595B"/><path d="m3.6 47.3c0.2 0.1 1.2 0.5 1.4 0.6h0.2c0.1 0 0.2-0.1 0.2-0.3v-0.3-0.1h0.2s0.1 0 0.1 0.1-0.1 0.4-0.1 0.9v0.8h-0.1-0.1-0.1v-0.2c0-0.2-0.1-0.4-0.3-0.5-0.1-0.1-1.4-0.7-2-1l-1.9-0.9c-0.1 0-0.2-0.1-0.3 0h-0.1s-0.1 0-0.1-0.1c0-0.2-0.2-0.7-0.3-0.8l-0.1-0.1 0.1-0.1c0.5-0.1 2.2-0.6 2.7-0.7 0.6-0.1 2-0.5 2.2-0.6 0.3-0.1 0.4-0.3 0.4-0.5v-0.2s0-0.1 0.1-0.1h0.2s0.1 0 0.1 0.1 0 0.3-0.1 1.1c0 0.6 0 0.9-0.1 1 0 0.1-0.1 0.1-0.1 0.1h-0.1s-0.1 0-0.1-0.1v-0.2c0-0.2-0.1-0.3-0.3-0.2-0.3 0-1.2 0.3-1.5 0.3l-0.1 2zm-0.1-1.7c-0.2 0.1-2 0.4-2.1 0.5-0.1 0-0.1 0-0.1 0.1 0 0 0 0.1 0.1 0.1s1.9 0.8 2.1 0.9v-1.6z" fill="#58595B"/><path d="m4.6 42.1c0.3 0 0.6 0 1-0.2s0.6-0.5 0.7-0.9-0.1-1-0.7-1.1c-0.7-0.1-1 0.1-1.4 0.9-0.1 0.2-0.4 0.7-0.8 1-0.4 0.2-0.7 0.3-1.2 0.2-0.4-0.1-0.7-0.3-0.9-0.7-0.2-0.3-0.2-0.7-0.2-1.1 0.1-0.5 0.3-0.8 0.4-0.9v-0.2l-0.1-0.1v-0.1s0.1-0.1 0.1 0c0.1 0 1.2 0.1 1.2 0.1v0.1 0.1s0 0.1-0.1 0.1c-0.2 0-0.5 0.1-0.9 0.3-0.2 0.2-0.4 0.4-0.5 0.7-0.1 0.6 0.3 0.9 0.6 1 0.2 0 0.5 0.1 0.7-0.1s0.5-0.5 0.6-0.8c0.2-0.4 0.4-0.7 0.8-0.9 0.3-0.2 0.6-0.3 1.1-0.2 0.9 0.2 1.5 0.9 1.3 1.9 0.2 0.4 0 0.8-0.3 1-0.1 0.1-0.1 0.1-0.1 0.2 0 0 0 0.1 0.1 0.1v0.2c0 0.1-0.1 0.1-0.1 0.1-0.1 0-1.3-0.4-1.3-0.4s-0.1 0-0.1-0.1l0.1-0.2z" fill="#58595B"/><path d="m6.3 34.9c0.3 0 0.6 0.1 1 0s0.7-0.4 0.8-0.7c0.1-0.4 0.1-1-0.5-1.2s-1 0-1.5 0.6c-0.2 0.2-0.5 0.6-1 0.8-0.3 0.2-0.7 0.1-1.1 0s-0.7-0.4-0.8-0.9c-0.1-0.4-0.1-0.7 0-1.1 0.2-0.5 0.4-0.7 0.5-0.8s0.1-0.1 0-0.2l-0.1-0.1v-0.1h0.1c0.1 0 1.1 0.3 1.2 0.3v0.1 0.1s0 0.1-0.1 0.1c-0.2 0-0.5 0-0.9 0.2-0.3 0.1-0.4 0.3-0.6 0.6-0.2 0.6 0.2 1 0.4 1 0.2 0.1 0.5 0.1 0.7 0s0.6-0.4 0.7-0.7c0.3-0.4 0.5-0.6 0.9-0.8 0.7-0.1 1-0.1 1.5 0 0.9 0.3 1.4 1.1 1 2.1-0.2 0.6-0.5 0.9-0.8 1.1l-0.1 0.1s0 0.1 0.1 0.2 0.1 0.1 0 0.2c0 0.1-0.1 0.1-0.1 0-0.1 0-1.2-0.6-1.3-0.6 0 0-0.1 0 0-0.1v-0.2z" fill="#58595B"/><path d="m5.7 27.9l-0.1 0.2c-0.1 0.2-0.3 0.7-0.4 1 0 0.3 0.3 0.7 0.5 1v0.1l-0.1 0.1h-0.1l-1.1-0.9-0.1-0.1 0.1-0.1c0.2-0.1 0.3-0.2 0.4-0.4 0.2-0.4 0.4-0.6 0.7-1.3l0.2-0.4c0.4-0.7 0.5-1 0.6-1.3 0.1-0.1 0.1-0.4 0.1-0.6v-0.2h0.1c0.1 0 1 0.3 1.4 0.4 0 0 0.1 0 0 0.1v0.2h-0.1c-0.2 0-0.8 0-1 0.2-0.2 0.1-0.5 0.7-0.6 1l-0.1 0.1 3.6 1.8c0.5 0.3 0.7 0.3 0.8 0.1l0.2-0.4h0.1l0.1 0.1s0.1 0 0 0.1c0 0.1-0.2 0.3-0.5 1s-0.5 1-0.5 1.1h-0.1l-0.2-0.1v-0.1l0.2-0.4c0.1-0.1 0-0.3-0.1-0.3-0.2-0.1-2.2-1.1-2.3-1.2l-1.7-0.8z" fill="#58595B"/><path d="m8.3 23.7c-0.2-0.1-0.3-0.2-0.5 0l-0.1 0.3h-0.1l-0.1-0.1v-0.1c0-0.1 0.3-0.3 0.7-0.9 0.2-0.6 0.4-0.9 0.5-0.9h0.1 0.1v0.1l-0.2 0.3c-0.1 0.2-0.1 0.4 0 0.5s0.4 0.3 0.8 0.6l0.8 0.5c0.3 0.2 0.8 0.5 1 0.6 0.3 0.2 0.6 0.3 0.9 0.3 0.4 0 0.8-0.3 1-0.6s0.3-0.7 0.3-1c-0.1-0.4-0.3-0.8-0.8-1.1l-1.1-0.8c-0.5-0.3-1.1-0.7-1.2-0.7-0.2-0.1-0.4-0.1-0.4 0.1l-0.3 0.2h-0.1l-0.2-0.1v-0.1c0-0.1 0.3-0.3 0.5-0.7 0.3-0.4 0.4-0.6 0.4-0.6 0-0.1 0.1 0 0.1 0l0.1 0.1s0.1 0 0 0.1l-0.2 0.2c-0.2 0.2 0 0.4 0.1 0.4 0.1 0.1 0.9 0.7 1 0.7 0.1 0.1 1.2 0.8 1.4 1 0.5 0.4 0.8 0.8 0.8 1.3 0.1 0.4-0.1 0.9-0.4 1.4-0.2 0.3-0.5 0.6-0.8 0.8-0.4 0.3-0.8 0.3-1.3 0.2-0.3-0.1-0.8-0.4-1.6-0.9l-1.2-1.1z" fill="#58595B"/><path d="m13.1 19c-0.1-0.1-0.9-0.8-1-0.9s-0.2-0.1-0.3 0.1l-0.3 0.3h-0.1l-0.1-0.1v-0.1c0.1-0.2 0.4-0.4 0.8-0.8 0.3-0.3 0.5-0.6 0.7-0.8 0.7-0.7 1.3-1.3 2.2-1.4 0.6-0.1 1.3 0.1 2 0.7 0.6 0.6 0.9 1.1 1 1.9 0.1 1.1-0.7 1.9-1 2.3-0.2 0.2-0.7 0.8-1 1-0.4 0.5-0.6 0.7-0.7 0.8h-0.1l-0.2-0.2v-0.1l0.3-0.3c0.1-0.1 0.1-0.2 0-0.3l-1.7-1.7-0.5-0.4zm1.2-0.2c0.1 0.1 1 0.9 1.4 1.2 0.1 0.1 0.2 0.2 0.4 0.2s0.4-0.1 0.6-0.3c0.4-0.4 0.6-1 0.5-1.7-0.1-0.5-0.4-1.1-0.9-1.5-0.4-0.4-1.1-0.6-1.6-0.7-0.6 0-1.2 0.3-1.6 0.8-0.1 0.1-0.2 0.3-0.3 0.4 0 0.1 0 0.2 0.2 0.3l1 1 0.3 0.3z" fill="#58595B"/><path d="m19.4 14.2c0 0.1 1.2 1.3 1.3 1.4 0.2 0.2 0.3 0.1 0.4 0l0.2-0.2h0.1l0.1 0.1v0.1c-0.1 0.1-0.3 0.2-0.8 0.7-0.6 0.5-0.8 0.7-0.8 0.8h-0.1l-0.3-0.1v-0.1l0.2-0.2c0.1-0.1 0.2-0.2 0.1-0.4-0.1-0.1-1.1-1.3-1.4-1.6l-0.3-0.4c-0.1-0.1-1-1.1-1.1-1.2s-0.2-0.1-0.4 0l-0.3 0.3h-0.1l-0.1-0.1v-0.1c0.1-0.1 0.4-0.3 0.9-0.8s0.7-0.6 0.8-0.7h0.1l0.1 0.1v0.1l-0.2 0.2c-0.1 0.1-0.2 0.2-0.1 0.3 0 0.1 1.1 1.3 1.2 1.4l0.5 0.4z" fill="#58595B"/><path d="m23.2 8.3c0.7 0.1 1.5 0.4 2.1 1.2 0.3 0.5 0.5 1 0.5 1.7 0 0.8-0.3 1.5-1.2 2.2-0.4 0.3-1 0.5-1.7 0.6-0.6 0-1.5-0.3-2.2-1.2-0.3-0.4-0.6-1-0.5-1.9 0.1-1 0.7-1.6 1.2-2 0.5-0.3 1-0.6 1.8-0.6zm-2.3 1.8c-0.1 0.6 0.1 1.4 0.5 1.9 1.1 1.6 2.5 1.5 3 1.1 1.2-0.9 0.5-2.4 0.1-2.9-0.9-1.3-2.4-1.5-3-1.1 0 0.1-0.4 0.3-0.6 1z" fill="#58595B"/><path d="m28.1 8.8c0.2 0.4 0.6 1.1 0.7 1.2s0.2 0.2 0.3 0.2l0.3-0.2h0.1l0.1 0.2v0.1c-0.1 0-0.2 0.1-0.9 0.4s-0.8 0.4-0.9 0.5h-0.1l-0.1-0.2v-0.1l0.2-0.1c0.1-0.1 0.2-0.2 0.1-0.3-0.3-0.7-0.6-1.3-1-1.9l-0.9-1.8c-0.1-0.2-0.3-0.3-0.4-0.2l-0.3 0.1h-0.1l-0.1-0.2v-0.1s0.3-0.1 0.9-0.4l1.2-0.6c0.5-0.3 1-0.3 1.4-0.2 0.3 0.1 0.6 0.3 0.7 0.6 0.7 0.8 0.4 1.4-0.3 1.9 0.2 0 0.4 0 0.6 0.1 0.1 0.1 0.9 0.5 1 0.5s0.8 0.4 1 0.5c0.2 0 0.4 0 0.5-0.1h0.1l0.1 0.1v0.1c-0.1 0-0.2 0.1-0.7 0.3l-0.6 0.3c-0.1 0-0.3-0.1-0.5-0.2s-0.7-0.5-0.8-0.6-0.5-0.3-0.7-0.4c-0.3-0.1-0.5-0.3-0.8-0.1 0 0-0.1 0.1-0.2 0.1l0.1 0.5zm-0.2-0.6c0.1 0 0.2-0.1 0.3-0.1 1-0.5 0.8-1.5 0.7-1.8-0.2-0.3-0.4-0.5-0.7-0.6s-0.7 0-1 0.2c-0.2 0-0.3 0.1-0.3 0.1v0.2l1 2z" fill="#58595B"/><path d="m31.5 4.2c-0.1-0.2-0.2-0.3-0.4-0.2l-0.3 0.1h-0.1l-0.1-0.2s0-0.1 0.1-0.1 0.4-0.1 1.1-0.4c0.6-0.2 0.9-0.4 1-0.4h0.1l0.1 0.3v0.1l-0.3 0.1c-0.2 0.1-0.3 0.2-0.2 0.4 0 0.1 0.2 0.5 0.3 0.9l0.2 0.8c0.1 0.4 0.3 0.9 0.4 1.1 0.1 0.3 0.3 0.6 0.6 0.8 0.4 0.2 0.8 0.2 1.1 0.1s0.7-0.4 0.8-0.7c0.2-0.4 0.2-0.8 0-1.3l-0.4-1.3c-0.3-0.6-0.5-1.2-0.6-1.3-0.1-0.2-0.2-0.3-0.4-0.2l-0.3 0.1h-0.1l-0.1-0.2v-0.1c0.1 0 0.4-0.1 0.9-0.3 0.4-0.2 0.7-0.3 0.7-0.3h0.1l0.1 0.2v0.1l-0.3 0.1c-0.3 0.1-0.2 0.3-0.2 0.4s0.4 1.1 0.4 1.2 0.5 1.3 0.5 1.6c0.2 0.6 0.1 1.1-0.1 1.6-0.1 0.3-0.5 0.6-1 0.8-0.3 0.1-0.8 0.2-1.1 0.2-0.5 0-0.9-0.2-1.2-0.6-0.2-0.3-0.4-0.7-0.7-1.7l-0.6-1.7z" fill="#58595B"/><path d="m42.8 3.2c0-0.2-0.4-2-0.4-2.1 0 0.1-0.6 2.4-0.6 2.6-0.1 0.3-0.5 2.2-0.5 2.3s-0.1 0.2-0.1 0.2-0.1 0-0.1-0.1c0 0-1.4-2.2-1.5-2.3-0.2-0.3-1.2-1.8-1.3-1.9 0 0.1 0.3 2 0.3 2.1s0.2 1.3 0.4 1.8c0.1 0.3 0.2 0.6 0.5 0.6l0.3-0.1h0.1v0.2s0 0.1-0.1 0.1-0.3 0-0.8 0.1c-0.6 0.1-0.9 0.2-1 0.2s-0.1 0-0.1-0.1v-0.2-0.1l0.3-0.1c0.2 0 0.3-0.3 0.3-0.6 0-0.5-0.3-2.3-0.3-2.5l-0.2-1.3c0-0.3-0.1-0.4-0.4-0.4l-0.3 0.1h-0.1v-0.2l0.1-0.1c0.1 0 0.3 0 1-0.2 0.4-0.1 0.6-0.1 0.6-0.1 0.1 0 0.1 0 0.2 0.1 0.4 0.6 1.9 2.9 2.2 3.5 0-0.1 0.3-1.5 0.4-1.9 0.1-0.3 0.5-2 0.5-2.1s0.1-0.1 0.3-0.1c1.1-0.2 1.3-0.3 1.4-0.3l0.1 0.1v0.2 0.1l-0.3 0.1c-0.2 0-0.2 0.2-0.2 0.3 0 0.2 0.3 1.6 0.3 1.8l0.1 0.5c0.1 0.4 0.3 1.5 0.3 1.6 0.1 0.3 0.1 0.4 0.3 0.4l0.4-0.1h0.1v0.2 0.1c-0.1 0-0.4 0.1-1.1 0.2-0.9 0.1-1.2 0.2-1.3 0.2 0 0-0.1 0-0.1-0.1v-0.2-0.1h0.5c0.1 0 0.2-0.1 0.2-0.3 0-0.1-0.2-1.1-0.3-1.7l-0.1-0.4z" fill="#58595B"/><path d="m53.8 2.9c0-0.2 0.1-2.1 0.1-2.1-0.1 0.1-1.1 2.2-1.2 2.4l-1 2c0 0.1-0.1 0.2-0.2 0.2 0 0-0.1 0-0.1-0.1 0 0-0.9-2.4-0.9-2.5-0.1-0.4-0.7-2.1-0.8-2.2 0 0.1-0.1 2-0.1 2.1s-0.1 1.4-0.1 1.8c0 0.3 0.1 0.6 0.3 0.6h0.3s0.1 0 0.1 0.1v0.2s0 0.1-0.1 0.1-0.3 0-0.8-0.1h-1c-0.1 0-0.1 0-0.1-0.1v-0.2h0.3c0.3 0 0.3-0.3 0.4-0.5 0.2-0.6 0.3-2.4 0.3-2.6l0.1-1.3c0-0.3 0-0.4-0.3-0.5h-0.3s-0.1 0-0.1-0.1v-0.2h0.1c0.1 0 0.3 0 1.1 0.1h0.7c0.1 0 0.1 0 0.2 0.1 0.2 0.7 1.2 3.2 1.4 3.9 0.1-0.1 0.7-1.3 0.9-1.8 0.1-0.3 0.9-1.8 0.9-2 0-0.1 0.1-0.1 0.3-0.1 1.1 0.1 1.3 0 1.4 0v0.1 0.2s0 0.1-0.1 0.1h-0.3c-0.2 0-0.2 0.1-0.2 0.3s-0.1 1.7-0.1 1.9v0.5c0 0.4-0.1 1.5-0.1 1.7 0 0.3 0.1 0.4 0.2 0.4h0.4v0.1 0.2s0 0.1-0.1 0.1-0.4 0-1.1-0.1h-1.1s-0.1 0-0.1-0.1v-0.2s0-0.1 0.1-0.1h0.5c0.1 0 0.2 0 0.2-0.3 0-0.1 0.1-1.1 0.1-1.7l-0.1-0.3z" fill="#58595B"/><path d="m57.4 1.4c0.1-0.2 0-0.4-0.2-0.4l-0.3-0.1s-0.1 0 0-0.1v-0.2s0-0.1 0.1 0c0.1 0 0.4 0.1 1.1 0.3 0.6 0.1 1 0.1 1.1 0.1 0 0 0.1 0 0 0.1v0.2s0 0.1-0.1 0l-0.3-0.1c-0.2 0-0.4 0.1-0.4 0.2s-0.1 0.5-0.2 0.9l-0.2 1c-0.1 0.4-0.2 0.9-0.2 1.1 0 0.3-0.1 0.7 0.1 1 0.1 0.4 0.5 0.6 0.8 0.7s0.8 0 1.1-0.1c0.3-0.2 0.6-0.6 0.7-1.2l0.3-1.3c0.1-0.6 0.2-1.2 0.2-1.4s-0.1-0.4-0.2-0.4l-0.3-0.1s-0.1 0 0-0.1v-0.2s0-0.1 0.1 0c0.1 0 0.4 0.1 0.9 0.2s0.7 0.1 0.8 0.1 0.1 0 0.1 0.1v0.2s0 0.1-0.1 0.1l-0.3-0.1c-0.3-0.1-0.3 0.1-0.4 0.2 0 0.1-0.2 1.1-0.3 1.2 0 0.1-0.3 1.4-0.4 1.7-0.2 0.6-0.4 1-0.9 1.3-0.4 0.2-0.9 0.3-1.4 0.2-0.4-0.1-0.8-0.2-1-0.4-0.4-0.3-0.6-0.7-0.7-1.2 0-0.3 0-0.8 0.2-1.8l0.3-1.7z" fill="#58595B"/><path d="m65.5 3.1l-0.2-0.1c-0.2-0.1-0.7-0.3-1.1-0.3-0.3 0-0.7 0.4-0.9 0.6h-0.1l-0.1-0.1v-0.1l0.8-1.1c0-0.1 0.1-0.1 0.1-0.1l0.1 0.1c0.1 0.2 0.2 0.3 0.4 0.4 0.4 0.1 0.7 0.3 1.3 0.5l0.4 0.1c0.8 0.3 1.1 0.4 1.4 0.5h0.6 0.2v0.1c0 0.1-0.2 1.1-0.3 1.4 0 0 0 0.1-0.1 0.1h-0.2v-0.1c0-0.2-0.1-0.8-0.3-1s-0.8-0.4-1-0.5l-0.2-0.1-1.3 3.8c-0.2 0.5-0.2 0.7 0 0.8l0.4 0.1v0.1l-0.1 0.1s0 0.1-0.1 0c-0.1 0-0.3-0.1-1-0.4s-1-0.3-1.1-0.4c0 0-0.1 0 0-0.1l0.1-0.2h0.1l0.4 0.1c0.1 0.1 0.3 0 0.3-0.1s0.8-2.2 0.9-2.4l0.6-1.7z" fill="#58595B"/><path d="m70 7.7c0 0.1-0.8 1.6-0.8 1.7-0.1 0.2 0 0.3 0.2 0.4l0.3 0.1v0.1l-0.1 0.2h-0.1c-0.1 0-0.3-0.2-1-0.5s-1-0.4-1-0.5v-0.1-0.1h0.1l0.3 0.1c0.1 0.1 0.3 0.1 0.4 0s0.8-1.5 0.9-1.9l0.2-0.5c0.1-0.2 0.6-1.4 0.7-1.5 0.1-0.2 0-0.3-0.2-0.4l-0.4-0.2v-0.1l0.1-0.2h0.1c0.1 0 0.4 0.2 1.1 0.5 0.6 0.3 0.9 0.4 1 0.4v0.1l-0.1 0.2h-0.1l-0.3-0.1c-0.1-0.1-0.3-0.1-0.3 0.1 0 0.1-0.8 1.5-0.8 1.6l-0.2 0.6z" fill="#58595B"/><path d="m73 8.2c-0.7 1.1-1.2 2-1.3 2.2-0.2 0.3-0.2 0.5 0 0.7l0.2 0.1c0.1 0 0 0.1 0 0.1l-0.1 0.1s0 0.1-0.1 0c-0.1 0-0.4-0.3-0.7-0.4-0.2-0.1-0.6-0.4-0.7-0.4v-0.1l0.1-0.2h0.1l0.2 0.1c0.2 0.1 0.3 0 0.6-0.4 0.1-0.1 0.7-1 1.3-2l0.5-0.8c0.2-0.4 0.2-0.8-0.1-1l-0.2-0.1v-0.1h0.2 0.1s0.1 0.1 0.2 0.1c0.1 0.1 0.3 0.2 0.6 0.4 0.1 0.1 0.2 0.1 0.3 0.2s0.1 0.1 0.2 0.1 0.1 0.1 0.1 0.2 0.3 2.4 0.3 2.7c0 0.2 0.3 2 0.3 2.2l0.4-0.7c0.3-0.6 0.5-0.9 0.7-1.2 0.1-0.2 0.5-0.9 0.5-1 0.1-0.2 0-0.4-0.2-0.5l-0.2-0.1v-0.1l0.1-0.1s0-0.1 0.1 0c0.1 0 0.3 0.2 0.7 0.5 0.4 0.2 0.5 0.3 0.6 0.4 0.1 0 0 0.1 0 0.1l-0.1 0.1s-0.1 0.1-0.1 0l-0.1-0.3c-0.1-0.1-0.3 0-0.4 0.2-0.3 0.4-1 1.4-1.4 2.1l-1 1.7c-0.1 0.1-0.1 0.2-0.2 0.1s-0.1-0.2-0.2-0.2c0-0.1-0.1-0.7-0.2-1.4-0.1-0.8-0.2-1.7-0.2-1.9 0-0.1-0.3-2-0.3-2.2l-0.6 0.8z" fill="#58595B"/><path d="m78.4 13.3c-0.3 0.3-0.7 0.9-0.8 1-0.2 0.3-0.2 0.5-0.1 0.6l0.4 0.4c0.1 0.1 0.4 0.3 0.5 0.4s0.4 0.2 0.6 0.2 0.8-0.1 1-0.2h0.1v0.1 0.1l-1 0.6h-0.2s-0.2-0.1-0.5-0.4c-0.4-0.3-1-0.8-1.9-1.6-0.2-0.2-0.4-0.3-0.5-0.4s-0.2-0.1-0.3-0.2v-0.1l0.1-0.1h0.1l0.2 0.2c0.3 0.2 0.3 0.2 0.5 0l1.6-1.9c0.4-0.5 1-1.2 1-1.3 0.1-0.2 0.1-0.3-0.1-0.4l-0.1-0.2v-0.1l0.1-0.2h0.1c0.1 0.1 0.3 0.3 0.8 0.7l0.2 0.1c0.3 0.2 1.6 1.3 1.8 1.5l0.2 0.2v0.1c0 0.1-0.5 1.1-0.5 1.1s0 0.1-0.1 0h-0.1v-0.1c0-0.1 0-1-0.1-1.2s-0.2-0.4-0.3-0.5l-0.9-0.7-1.4 1.7c0.2 0.1 0.6 0.5 0.7 0.5 0.1 0.1 0.3 0.1 0.4 0 0.1 0 0.3-0.1 0.4-0.2h0.1l0.1 0.1v0.1c-0.1 0.1-0.4 0.5-0.5 0.6-0.2 0.2-0.4 0.5-0.5 0.7h-0.1l-0.1-0.1v-0.1c0.1-0.1 0.1-0.3 0.1-0.4 0-0.2 0-0.3-0.1-0.4-0.2-0.2-0.5-0.4-0.6-0.6l-0.3 0.4z" fill="#58595B"/><path d="m82.9 15.7c-0.9 0.9-1.7 1.6-1.8 1.8-0.3 0.3-0.3 0.5-0.1 0.7l0.1 0.1v0.1l-0.1 0.1h-0.1c-0.1-0.1-0.3-0.4-0.5-0.6-0.1-0.1-0.5-0.5-0.5-0.6v-0.1l0.1-0.1h0.1l0.2 0.2c0.1 0.1 0.3 0.1 0.7-0.2 0.1-0.1 0.9-0.8 1.8-1.6l0.7-0.7c0.3-0.3 0.4-0.7 0.2-1l-0.2-0.2v-0.1l0.1-0.1h0.1s0.1 0.1 0.1 0.2c0.1 0.1 0.2 0.3 0.4 0.5l0.2 0.2 0.1 0.1c0.1 0.1 0.1 0.1 0.1 0.2s-0.3 2.4-0.4 2.7c0 0.2-0.3 2-0.3 2.2l0.6-0.5c0.5-0.5 0.8-0.7 1-1l0.8-0.8c0.1-0.2 0.1-0.4-0.1-0.5l-0.2-0.2v-0.1l0.1-0.1h0.1c0.1 0.1 0.2 0.3 0.6 0.6l0.5 0.5v0.1l-0.1 0.1h-0.1l-0.1 0.1c-0.1-0.1-0.2-0.1-0.5 0.1-0.4 0.3-1.4 1.1-1.9 1.6l-1.4 1.4c-0.1 0.1-0.2 0.1-0.2 0.1-0.1-0.1-0.1-0.2-0.1-0.3s0.1-0.7 0.2-1.4c0.1-0.8 0.2-1.7 0.3-1.9 0-0.1 0.3-2 0.3-2.2l-0.8 0.6z" fill="#58595B"/><path d="m85.7 21.4v0c-0.2 0.2-0.4 0.4-0.5 0.8-0.2 0.4-0.2 0.8 0.1 1.1 0.2 0.3 0.8 0.6 1.3 0.3 0.6-0.4 0.6-0.8 0.3-1.6-0.1-0.2-0.2-0.8-0.1-1.3 0-0.3 0.3-0.7 0.6-0.9s0.7-0.3 1.2-0.2c0.4 0.1 0.7 0.3 0.9 0.6 0.3 0.4 0.4 0.7 0.4 0.9 0 0.1 0.1 0.1 0.1 0.1h0.1s0.1 0 0.1 0.1c0 0 0 0.1-0.1 0.1-0.1 0.1-0.9 0.8-0.9 0.8h-0.1-0.1v-0.1c0.1-0.2 0.3-0.5 0.4-0.8s0-0.5-0.2-0.8c-0.4-0.5-0.9-0.4-1.1-0.2s-0.4 0.3-0.4 0.6 0.1 0.7 0.2 1c0.1 0.4 0.2 0.8 0.2 1.2-0.1 0.3-0.2 0.6-0.6 0.9-0.7 0.5-1.7 0.5-2.3-0.3-0.4-0.5-0.5-0.9-0.5-1.2v-0.2h-0.2c-0.1 0-0.1 0-0.2-0.1v-0.1c0.1 0 1.1-0.7 1.2-0.7h0.1 0.1z" fill="#58595B"/><path d="m89.5 25.8c-0.1 0-1.5 0.9-1.6 1-0.2 0.1-0.2 0.2-0.1 0.4l0.2 0.3v0.1l-0.2 0.1h-0.1c0-0.1-0.2-0.3-0.5-0.9-0.4-0.6-0.6-0.9-0.6-1v-0.1l0.2-0.1h0.1l0.2 0.3c0.1 0.1 0.2 0.3 0.4 0.2 0.1 0 1.5-0.9 1.8-1.1l0.4-0.3c0.2-0.1 1.3-0.8 1.4-0.9s0.2-0.2 0.1-0.4l-0.3-0.4v-0.1l0.2-0.1h0.1c0 0.1 0.2 0.4 0.6 1s0.5 0.8 0.6 0.9v0.1l-0.3 0.2h-0.1l-0.1-0.2c-0.1-0.1-0.2-0.2-0.3-0.1-0.1 0-1.5 0.9-1.6 0.9l-0.5 0.2z" fill="#58595B"/><path d="m90 28.1v0c-0.2 0.2-0.5 0.4-0.7 0.7-0.2 0.4-0.2 0.8 0 1.1 0.2 0.4 0.7 0.8 1.2 0.5 0.6-0.3 0.7-0.7 0.6-1.5 0-0.3-0.1-0.8 0.1-1.3 0.1-0.3 0.4-0.6 0.8-0.8s0.8-0.2 1.2 0 0.6 0.4 0.8 0.8 0.2 0.8 0.3 0.9c0 0.1 0 0.1 0.1 0.1h0.1s0.1 0 0.1 0.1c0 0 0 0.1-0.1 0.1-0.1 0.1-1 0.6-1.1 0.7h-0.1l-0.1-0.1v-0.1c0.2-0.2 0.4-0.4 0.5-0.8 0.1-0.3 0.1-0.5-0.1-0.8-0.3-0.5-0.8-0.5-1-0.4s-0.4 0.2-0.5 0.5-0.1 0.7 0 1c0.1 0.4 0.1 0.8-0.1 1.2-0.1 0.3-0.3 0.6-0.8 0.8-0.8 0.4-1.8 0.2-2.2-0.7-0.3-0.5-0.3-0.9-0.2-1.3v-0.2h-0.2c-0.1 0-0.1 0-0.1-0.1s0-0.1 0.1-0.1 1.2-0.5 1.3-0.5h0.1v0.2z" fill="#58595B"/><path d="m93.7 35.9c-0.4 0.1-1.1 0.3-1.2 0.4-0.4 0.1-0.5 0.3-0.5 0.5 0 0.1 0 0.3 0.1 0.6 0 0.1 0.1 0.5 0.2 0.6s0.2 0.4 0.4 0.5 0.7 0.4 1 0.4c0 0 0.1 0 0.1 0.1v0.1h-0.1-1.2c-0.1 0-0.1 0-0.2-0.1 0 0 0-0.2-0.2-0.6-0.1-0.5-0.3-1.2-0.7-2.4-0.1-0.3-0.1-0.5-0.2-0.6 0-0.1-0.1-0.2-0.1-0.3v-0.1l0.2-0.1s0.1 0 0.1 0.1l0.1 0.2c0.1 0.3 0.1 0.3 0.4 0.3l2.4-0.7c0.6-0.2 1.5-0.4 1.6-0.5 0.2-0.1 0.2-0.2 0.2-0.4l-0.1-0.3v-0.1l0.2-0.1h0.1c0 0.2 0.1 0.4 0.3 1l0.1 0.2c0.1 0.3 0.6 2 0.7 2.3 0 0.1 0.1 0.2 0.1 0.3v0.1c-0.1 0.1-1 0.6-1 0.7h-0.1l-0.1-0.1v-0.1s0.5-0.8 0.6-1c0-0.2 0.1-0.4 0-0.6l-0.3-1.1-2.1 0.6c0.1 0.2 0.2 0.7 0.3 0.8s0.2 0.2 0.4 0.3h0.4 0.1v0.2 0.1c-0.1 0-0.6 0.2-0.8 0.2-0.3 0.1-0.6 0.2-0.8 0.3h-0.1l-0.1-0.1v-0.1c0.1-0.1 0.2-0.2 0.3-0.2 0.1-0.1 0.2-0.3 0.2-0.4 0-0.3-0.1-0.6-0.2-0.8l-0.5-0.1z" fill="#58595B"/><path d="m97.9 41.3v-0.2c0-0.2-0.1-0.8-0.3-1.1-0.1-0.2-0.7-0.4-0.9-0.5 0 0-0.1 0-0.1-0.1v-0.2h0.1l1.4 0.1c0.1 0 0.1 0 0.1 0.1 0 0 0 0.1-0.1 0.1-0.1 0.2-0.1 0.4-0.1 0.6 0 0.4 0.1 0.7 0.2 1.4l0.1 0.4c0.1 0.8 0.2 1.1 0.3 1.5 0 0.1 0.2 0.4 0.3 0.5l0.1 0.1s0 0.1-0.1 0.1-1 0.3-1.4 0.4h-0.1l-0.1-0.1v-0.1c0.2-0.1 0.6-0.5 0.7-0.7s0-0.9 0-1.2v-0.2l-3.9 0.6c-0.6 0.1-0.7 0.2-0.7 0.4l0.1 0.4-0.1 0.1h-0.2s-0.1 0-0.1-0.1 0-0.3-0.2-1.1c-0.1-0.8-0.2-1.1-0.2-1.2 0 0 0-0.1 0.1-0.1h0.2 0.1l0.1 0.4c0 0.1 0.1 0.2 0.2 0.2 0.2 0 2.5-0.4 2.6-0.4l1.9-0.1z" fill="#58595B"/><path d="m95.5 50.1h-1.4c-0.2 0-0.3 0.1-0.3 0.2v0.4s0 0.1-0.1 0.1h-0.2c-0.1 0-0.1 0-0.1-0.1s0-0.2 0.1-1v-1s0-0.1 0.1-0.1h0.2 0.1v0.3c0 0.2 0 0.3 0.2 0.3 0.7 0 1.4 0.1 2.2 0.1l2 0.1c0.3 0 0.4-0.1 0.4-0.2v-0.3-0.1h0.2s0.1 0 0.1 0.1 0 0.3-0.1 1v1.3c0 0.6-0.2 1.1-0.5 1.3-0.2 0.3-0.6 0.4-0.9 0.4-0.9 0-1.3-0.6-1.4-1.4-0.1 0.2-0.2 0.3-0.4 0.4-0.1 0.1-0.8 0.5-0.9 0.6-0.1 0-0.8 0.5-0.9 0.6s-0.2 0.3-0.2 0.5c0 0 0 0.1-0.1 0.1h-0.2c-0.1 0-0.1 0-0.1-0.1v-0.7-0.7c0.1-0.1 0.3-0.2 0.4-0.3 0.2-0.1 0.8-0.4 0.9-0.5s0.5-0.3 0.7-0.4c0.3-0.2 0.5-0.3 0.5-0.7v-0.2h-0.3zm0.7 0.1v0.3c0 1.2 0.9 1.4 1.2 1.4s0.7-0.1 0.8-0.3c0.2-0.3 0.3-0.6 0.4-1v-0.3c0-0.1-0.1-0.1-0.2-0.1h-2.2z" fill="#58595B"/><path d="m95.3 56c-0.4-0.1-1.1-0.2-1.3-0.2-0.4-0.1-0.6 0-0.6 0.2 0 0.1-0.1 0.3-0.1 0.6 0 0.1-0.1 0.5-0.1 0.6s0 0.4 0.2 0.6c0.1 0.2 0.5 0.6 0.7 0.8v0.1l-0.1 0.1h-0.1l-1.1-0.5c-0.1 0-0.1-0.1-0.1-0.2 0 0 0-0.2 0.1-0.7s0.2-1.2 0.4-2.5c0-0.3 0.1-0.5 0.1-0.6v-0.3s0-0.1 0.1 0h0.2s0.1 0 0 0.1v0.3c-0.1 0.3 0 0.4 0.3 0.4l2.5 0.4c0.6 0.1 1.5 0.2 1.6 0.2 0.2 0 0.3-0.1 0.3-0.3v-0.3h0.1 0.2s0.1 0 0 0.1c0 0.2-0.1 0.4-0.2 1v0.2c-0.1 0.3-0.3 2-0.4 2.3v0.3l-0.1 0.1c-0.1 0-1.1 0.1-1.2 0.2h-0.1v-0.1-0.1s0.8-0.5 1-0.7c0.1-0.1 0.2-0.3 0.3-0.5l0.2-1.1-2.1-0.4c0 0.2-0.1 0.8-0.1 0.8 0 0.2 0 0.3 0.2 0.4 0.1 0.1 0.3 0.2 0.4 0.2 0 0 0.1 0 0 0.1v0.2h-0.1c-0.1 0-0.6-0.1-0.8-0.1-0.3 0-0.7-0.1-0.8-0.1v-0.1-0.2l0.1-0.1c0.1 0 0.3 0 0.4-0.1 0.2 0 0.3-0.2 0.3-0.3 0.1-0.3 0.1-0.6 0.2-0.8h-0.5z" fill="#58595B"/><path d="m91.7 64.5h-0.2c-0.1 0-0.1-0.1-0.1-0.1-0.1-0.7-0.1-1.3 0.1-2.2 0.2-0.7 0.7-1.5 1.4-1.8 0.6-0.3 1.3-0.3 2.1-0.1 0.7 0.2 1.3 0.7 1.6 1.4s0.3 1.4 0.1 2.2c-0.2 0.7-0.6 1.2-0.8 1.3-0.1 0.1-0.1 0.1 0 0.2l0.1 0.1c0 0.1 0.1 0.1 0 0.1 0 0.1-0.1 0.1-0.1 0.1l-1.5-0.4c-0.1 0-0.1 0-0.1-0.1v-0.2s0-0.1 0.1-0.1c0.3 0 0.8-0.1 1.2-0.3 0.3-0.2 0.7-0.5 0.9-1 0.1-0.4 0.1-0.9-0.2-1.4s-0.8-0.9-1.4-1.1c-0.8-0.3-1.6-0.2-2.2 0-0.4 0.2-0.7 0.5-0.8 1s-0.2 0.7-0.1 1c0 0.2 0.2 0.3 0.6 0.4l0.5 0.2c0.3 0.1 0.4 0 0.4-0.2l0.1-0.3h0.1 0.2s0.1 0 0 0.1c0 0.1-0.2 0.4-0.3 1-0.2 0.6-0.2 0.9-0.3 0.9 0 0.1 0 0.1-0.1 0.1l-0.2-0.1s-0.1 0 0-0.1l0.1-0.2c0-0.1 0-0.2-0.2-0.3l-1-0.1z" fill="#58595B"/><path d="m92.1 68.1c-0.1 0-1.7-0.7-1.7-0.7-0.2-0.1-0.3 0-0.4 0.2l-0.1 0.3h-0.1l-0.2-0.1v-0.1c0-0.1 0.2-0.3 0.4-1 0.3-0.7 0.4-1 0.4-1.1h0.1l0.2 0.1v0.1l-0.1 0.2c-0.1 0.1-0.1 0.3 0.1 0.4 0.1 0.1 1.6 0.7 1.9 0.9l0.5 0.2c0.2 0.1 1.4 0.6 1.5 0.6 0.2 0 0.3 0 0.4-0.2l0.2-0.4h0.1l0.2 0.1v0.1c0 0.1-0.2 0.4-0.5 1.1s-0.4 0.9-0.4 1h-0.1l-0.2-0.1v-0.1l0.1-0.3c0.1-0.2 0.1-0.3-0.1-0.3-0.1 0-1.6-0.7-1.7-0.7l-0.5-0.2z" fill="#58595B"/><path d="m90.3 71.1c-0.4-0.2-1-0.5-1.1-0.6-0.3-0.2-0.5-0.1-0.7 0-0.1 0.1-0.2 0.2-0.3 0.5-0.1 0.1-0.2 0.4-0.3 0.6-0.1 0.1-0.1 0.4-0.1 0.7 0 0.2 0.3 0.8 0.4 1v0.1l-0.1 0.1h-0.1l-0.8-0.9c0-0.1-0.1-0.1 0-0.2l0.3-0.6c0.2-0.4 0.6-1.1 1.2-2.2l0.3-0.6c0.1-0.1 0.1-0.2 0.1-0.3h0.1l0.2 0.1v0.1l-0.1 0.2c-0.2 0.3-0.1 0.3 0.1 0.5l2.2 1.2c0.5 0.3 1.4 0.7 1.5 0.8 0.2 0.1 0.3 0 0.4-0.2l0.1-0.2h0.1l0.2 0.1v0.1c-0.1 0.1-0.2 0.4-0.5 0.9l-0.1 0.2c-0.2 0.3-1 1.8-1.1 2.1-0.2-0.1-0.2 0.1-0.2 0.1h-0.1c-0.1 0-1.1-0.3-1.2-0.3 0 0-0.1 0-0.1-0.1v-0.1h0.1c0.1 0 1-0.2 1.1-0.3 0.2-0.1 0.3-0.2 0.4-0.4l0.6-1-1.8-1.1c-0.1 0.2-0.4 0.7-0.4 0.8-0.1 0.2 0 0.3 0.1 0.4l0.3 0.3v0.1l-0.1 0.2h-0.1c-0.1-0.1-0.5-0.3-0.7-0.4-0.3-0.1-0.6-0.3-0.7-0.4v-0.1l0.1-0.2h0.1c0.1 0 0.3 0.1 0.4 0.1 0.2 0 0.3-0.1 0.4-0.2 0.2-0.2 0.3-0.5 0.5-0.7l-0.6-0.2z" fill="#58595B"/><path d="m88.8 76c-1-0.8-1.9-1.3-2.1-1.4-0.3-0.2-0.5-0.2-0.7 0l-0.1 0.2h-0.1l-0.1-0.1v-0.1c0-0.1 0.3-0.4 0.5-0.6 0.1-0.2 0.4-0.6 0.4-0.6h0.1l0.2 0.1v0.1l-0.2 0.2c-0.1 0.2 0 0.3 0.3 0.6 0.1 0.1 0.9 0.7 1.9 1.4l0.8 0.6c0.4 0.3 0.8 0.3 1 0l0.1-0.2h0.1l0.2 0.1v0.1s-0.1 0.1-0.1 0.2c-0.1 0.1-0.2 0.3-0.4 0.5-0.1 0.1-0.1 0.2-0.2 0.3s-0.1 0.1-0.1 0.2c-0.1 0.1-0.1 0.1-0.2 0.1s-2.5 0.1-2.7 0.1-2 0.1-2.2 0.1l0.6 0.5c0.5 0.4 0.8 0.6 1.1 0.8 0.2 0.2 0.8 0.6 1 0.6 0.2 0.1 0.4 0 0.5-0.2l0.1-0.2h0.1l0.1 0.1v0.1c-0.1 0.1-0.2 0.3-0.5 0.7s-0.4 0.5-0.4 0.6h-0.1l-0.1-0.1s-0.1-0.1 0-0.1l0.1-0.2c0.1-0.1 0-0.3-0.2-0.4-0.4-0.3-1.4-1.1-2-1.6l-1.6-1.2c-0.1-0.1-0.2-0.1-0.1-0.2s0.2-0.1 0.2-0.1c0.1 0 0.7-0.1 1.4-0.1 0.8 0 1.7-0.1 1.9-0.1 0.1 0 2.1-0.1 2.2-0.1l-0.7-0.7z" fill="#58595B"/><path d="m83.7 79.8c-0.3-0.2-0.5-0.3-0.9-0.4s-0.8 0.1-1.1 0.3c-0.3 0.3-0.5 0.9 0 1.3 0.5 0.5 0.9 0.4 1.6 0 0.2-0.1 0.7-0.3 1.2-0.4 0.3 0 0.7 0.1 1 0.5 0.3 0.3 0.4 0.6 0.4 1.1 0 0.4-0.2 0.7-0.5 1-0.3 0.4-0.6 0.5-0.8 0.6-0.1 0-0.1 0.1-0.1 0.1v0.1 0.1h-0.1c-0.1-0.1-0.9-0.7-1-0.8v-0.1l0.1-0.1h0.1c0.2 0.1 0.5 0.2 0.9 0.2 0.3 0 0.5-0.1 0.8-0.4 0.4-0.4 0.2-0.9 0-1.1s-0.4-0.3-0.6-0.3c-0.3 0-0.7 0.2-1 0.3-0.4 0.2-0.7 0.4-1.2 0.4-0.3 0-0.7-0.1-1-0.5-0.7-0.6-0.8-1.6-0.1-2.3 0.4-0.4 0.8-0.6 1.1-0.7 0.1 0 0.2 0 0.2-0.1v-0.2-0.2h0.1c0.1 0.1 0.9 1 0.9 1.1v0.1 0.4z" fill="#58595B"/><path d="m80.1 84.4c0-0.1-1.2-1.3-1.3-1.4-0.2-0.2-0.3-0.1-0.4 0l-0.2 0.2h-0.1l-0.1-0.1v-0.1c0.1-0.1 0.3-0.2 0.8-0.7 0.6-0.5 0.8-0.7 0.8-0.8h0.1l0.1 0.2v0.1l-0.2 0.2c-0.1 0.1-0.2 0.2-0.1 0.4 0.1 0.1 1.1 1.3 1.4 1.6l0.3 0.4c0.1 0.1 1 1.1 1.1 1.2s0.2 0.1 0.4 0l0.3-0.3h0.1l0.1 0.1v0.1c-0.1 0.1-0.4 0.3-0.9 0.8s-0.7 0.7-0.8 0.7h-0.1l-0.1-0.1v-0.1l0.2-0.2c0.1-0.1 0.2-0.2 0.1-0.3 0-0.1-1.1-1.3-1.2-1.4l-0.3-0.5z" fill="#58595B"/><path d="m77.9 85.2v0c-0.2-0.2-0.4-0.4-0.8-0.5-0.4-0.2-0.8-0.1-1.1 0.2-0.3 0.2-0.6 0.8-0.3 1.3 0.4 0.6 0.8 0.5 1.6 0.3 0.2-0.1 0.8-0.2 1.2-0.2 0.3 0 0.7 0.3 0.9 0.6 0.3 0.3 0.3 0.7 0.2 1.2-0.1 0.4-0.3 0.7-0.6 0.9-0.4 0.3-0.7 0.4-0.9 0.4-0.1 0-0.1 0.1-0.1 0.1v0.1s0 0.1-0.1 0.1c0 0-0.1 0-0.1-0.1-0.1-0.1-0.8-0.9-0.8-0.9v-0.1l0.1-0.1h0.1c0.2 0.1 0.5 0.3 0.8 0.4s0.5 0 0.8-0.2c0.5-0.4 0.4-0.9 0.2-1.1s-0.3-0.4-0.6-0.4-0.7 0.1-1 0.2c-0.4 0.2-0.8 0.2-1.2 0.2-0.3-0.1-0.6-0.2-0.9-0.6-0.5-0.7-0.5-1.7 0.3-2.3 0.5-0.4 0.9-0.5 1.2-0.5h0.2v-0.2c0-0.1 0-0.1 0.1-0.2h0.1c0 0.1 0.7 1.1 0.7 1.2v0.1 0.1z" fill="#58595B"/><path d="m42.4 94.2v-0.9c0-0.3-0.1-0.4-0.5-0.4h-0.4-0.1v-0.3s0-0.1 0.1-0.1h1.3 1.3c0.1 0 0.1 0 0.1 0.1v0.3c0 0.1 0 0.1-0.1 0.1h-0.5c-0.3 0-0.4 0.1-0.4 0.4v1.1 0.5 1.3c0 0.3 0.2 0.5 0.6 0.5h0.4s0.1 0 0.1 0.1v0.1c0 0.1 0 0.1-0.1 0.1h-1.3-1.4c-0.1 0-0.1 0-0.1-0.1v-0.3c0-0.1 0-0.1 0.1-0.1h0.3c0.3 0 0.5-0.1 0.6-0.4v-1.6-0.4z" fill="#58595B"/><path d="m46.5 94.2v-0.9c0-0.3-0.1-0.4-0.5-0.4h-0.4-0.1v-0.3s0-0.1 0.1-0.1h1.3 1.3c0.1 0 0.1 0 0.1 0.1v0.3c0 0.1 0 0.1-0.1 0.1h-0.5c-0.3 0-0.4 0.1-0.4 0.4v1.1 0.5 1.3c0 0.3 0.2 0.5 0.6 0.5h0.4s0.1 0 0.1 0.1v0.1c0 0.1 0 0.1-0.1 0.1h-1.3-1.4c-0.1 0-0.1 0-0.1-0.1v-0.3c0-0.1 0-0.1 0.1-0.1h0.3c0.3 0 0.5-0.1 0.6-0.4v-1.6-0.4z" fill="#58595B"/><path d="m49.8 99.7c0-0.2 0.2-0.6 0.3-0.8 0.3-0.6 2.3-4.6 2.8-5.5h-2.1c-0.6 0-0.9 0.3-1.1 0.6h-0.1c-0.1 0-0.2-0.1-0.1-0.2 0.2-0.3 0.8-1.5 0.8-1.6s0.1-0.1 0.1-0.1 0.2 0 0.2 0.1 0 0.1-0.1 0.2c0 0.2 0.1 0.2 0.4 0.2h2.7c0.1 0 0.2 0.1 0.1 0.2-0.4 0.7-1.4 2.6-1.6 3-0.1 0.2-1.3 2.7-1.5 3.4-0.2 0.6-0.3 0.8-0.5 0.8s-0.3-0.1-0.3-0.3z" fill="#58595B"/><path d="m54.2 99c0-0.2 0.1-0.3 0.3-0.3s0.4 0.2 0.4 0.2c0.1 0.1 0.3 0.2 0.7 0.2 0.7 0 1.2-0.6 1.2-1.6 0-1.5-1-1.8-2-2l0.5-2.8c0-0.1 0.1-0.1 0.2-0.1h1.4c0.5 0 0.6-0.3 0.7-0.5h0.1v0.1l-0.3 1c0 0.2-0.2 0.2-0.3 0.2h-1.5l-0.3 1.4c1.1 0.2 2.2 0.9 2.2 2.4 0 1.4-1.1 2.4-2.1 2.4-0.6-0.1-1.2-0.2-1.2-0.6z" fill="#58595B"/><path d="m122.1 20.3v14.9c0 5.6 2.5 8 5.8 8 3.7 0 6.1-2.5 6.1-8v-14.9h3.3v14.7c0 7.7-4.1 10.8-9.5 10.8-5.1 0-9-2.9-9-10.7v-14.8h3.3z" fill="#58595B"/><path d="m144.7 45.3v-25h3.6l8 12.7c1.8 2.9 3.3 5.6 4.5 8.1h0.1c-0.3-3.3-0.4-6.4-0.4-10.3v-10.5h3.1v25.1h-3.3l-8-12.7c-1.7-2.8-3.4-5.7-4.6-8.4h-0.1c0.2 3.2 0.2 6.2 0.2 10.3v10.7h-3.1z" fill="#58595B"/><path d="m174.3 20.3v25.1h-3.3v-25.1h3.3z" fill="#58595B"/><path d="m202.9 34.3c-0.2-3.5-0.4-7.7-0.4-10.8h-0.1c-0.9 2.9-1.9 6.1-3.2 9.5l-4.4 12.2h-2.5l-4.1-11.9c-1.2-3.5-2.2-6.8-2.9-9.7h-0.1c-0.1 3.1-0.3 7.3-0.5 11.1l-0.7 10.7h-3.1l1.7-25.1h4.1l4.3 12.1c1 3.1 1.9 5.9 2.5 8.5h0.1c0.7-2.5 1.6-5.3 2.7-8.5l4.5-12.1h4.1l1.6 25.1h-3.2l-0.4-11.1z" fill="#F04926"/><path d="m223.4 45.8c-6.7 0-11.3-5.1-11.3-12.7 0-8 4.9-13.2 11.6-13.2 6.9 0 11.3 5.2 11.3 12.7 0 8.5-5.2 13.2-11.6 13.2zm0.2-2.7c5.1 0 8-4.7 8-10.4 0-5-2.6-10.2-8-10.2s-8.1 5-8.1 10.4c0 5.3 2.9 10.2 8.1 10.2z" fill="#F04926"/><path d="m275.9 33.6h-9.7v9h10.9v2.7h-14.1v-25h13.6v2.7h-10.3v7.9h9.7v2.7z" fill="#F04926"/><path d="m258.2 45.3h-3.7c-0.4-0.7-1.1-2.9-1.8-6-0.8-3.5-2.3-4.8-5.6-4.9h-3.7v10.9h-3.3v-24.7c1.6-0.3 4-0.6 6.2-0.6h0.5 0.2 0.2 1.1 0.1c2.1 0.1 3.6 0.4 5.2 1.1h0.1c0.1 0 0.1 0.1 0.2 0.1 0.1 0.1 0.2 0.1 0.3 0.2s0.2 0.1 0.3 0.2c1.7 1.1 2.6 2.5 2.8 4.5v0.8c0 3.3-2.3 5.5-5.2 6.4v0.1c2.1 0.7 3.4 2.5 4 5.1 0.9 3.5 1.6 5.9 2.1 6.8zm-11.4-13.3c4.8 0 6.9-1.9 6.9-4.8 0-3.6-3.3-4.6-5.8-4.6-1.6 0-3.9 0.1-4.4 0.3v9.1h3.3z" fill="#F04926"/><path d="m122.5 66.2c-2.7 0-3.1-2.3-3.1-3.7v-5.5h0.9v5.4c0 1.9 0.8 2.9 2.2 2.9 1.5 0 2.3-1 2.3-2.9v-5.4h0.9v5.4c0.1 3.5-2.2 3.8-3.2 3.8z" fill="#58595B"/><path d="m134.8 66.1h-0.8l-3.4-5.2c-0.5-0.8-1-1.5-1.4-2.2v2.8 4.6h-0.9v-9.1h0.8v0.1l3.4 5.2c0.5 0.8 1 1.5 1.3 2.1 0-0.9-0.1-1.7-0.1-2.9v-4.5h0.9v9.1z" fill="#58595B"/><rect y="57" x="137.3" height="9.1" width=".9" fill="#58595B"/><path d="m143.5 66.1h-0.8v-0.1l-3-9h1v0.1l1.6 4.8c0.3 1 0.6 1.9 0.8 2.7 0.3-0.9 0.6-1.9 1-2.9l1.7-4.8h1l-3.3 9.2z" fill="#58595B"/><polygon points="152.9 66.1 148.1 66.1 148.1 57 152.7 57 152.7 57.9 149 57.9 149 60.9 152.5 60.9 152.5 61.8 149 61.8 149 65.3 152.9 65.3" fill="#58595B"/><path d="m160.3 65.9c-0.2-0.4-0.4-1.1-0.6-2.3-0.2-0.9-0.6-1.5-1.1-1.8 1-0.4 1.5-1.3 1.5-2.3 0-0.6-0.2-1.3-0.7-1.7-0.5-0.5-1.3-0.8-2.5-0.8-0.7 0-1.4 0.1-1.9 0.2h-0.1v8.9h0.9v-4h1.2c1.1 0 1.6 0.5 1.8 1.8 0.2 1.1 0.4 1.9 0.6 2.2v0.1h1l-0.1-0.3zm-3.3-4.6h-1.2v-3.4c0.2 0 0.6-0.1 1.1-0.1 1 0 2.2 0.3 2.2 1.7 0 1.1-0.8 1.8-2.1 1.8z" fill="#58595B"/><path d="m163.9 66.2c-0.8 0-1.7-0.3-2.2-0.6l-0.1-0.1 0.4-0.8 0.2 0.1c0.5 0.3 1.2 0.5 1.8 0.5 1.2 0 2-0.6 2-1.7 0-0.9-0.5-1.4-1.7-1.9-1.6-0.6-2.4-1.4-2.4-2.6 0-1.4 1.1-2.4 2.7-2.4 0.9 0 1.5 0.2 1.8 0.4l0.1 0.1-0.4 0.8-0.2-0.1c-0.2-0.2-0.8-0.4-1.4-0.4-1.4 0-1.7 0.9-1.7 1.4 0 0.8 0.4 1.3 1.7 1.8 1.4 0.6 2.3 1.2 2.3 2.7 0 2-1.5 2.8-2.9 2.8z" fill="#58595B"/><rect y="57" x="168.9" height="9.1" width="1" fill="#58595B"/><polygon points="174.9 66.1 174 66.1 174 57.9 171.1 57.9 171.1 57 177.8 57 177.8 57.9 174.9 57.9" fill="#58595B"/><polygon points="180.4 54.6 180.4 54.6 179.2 54.6 178.9 54.6 179.1 54.8 181 56.4 181 56.4 181 56.4 181.8 56.4 182 56.4 181.8 56.2 180.4 54.7 180.4 54.6" fill="#58595B"/><path d="m181.5 57.1v-0.1h-0.8l-3.3 9.1h1l1.1-3.1h3.2l1.1 3.1h1l-3.3-9zm-1.7 5.1l1-2.7c0.1-0.4 0.2-0.7 0.3-1 0.1 0.3 0.2 0.6 0.3 1l1 2.7h-2.6z" fill="#58595B"/><path d="m195.8 58.2c-0.8-0.8-2-1.2-3.6-1.2-0.8 0-1.5 0.1-2.3 0.2h-0.1v8.9h0.1c0.6 0 1.2 0.1 2 0.1 1.7 0 3.1-0.5 3.9-1.4s1.2-2 1.2-3.4c-0.1-1.4-0.4-2.4-1.2-3.2zm-3.9 7.1h-1.2v-7.3c0.3-0.1 0.8-0.1 1.4-0.1 1.3 0 2.3 0.3 3 1 0.6 0.6 0.9 1.5 0.9 2.6 0 2.4-1.5 3.8-4.1 3.8z" fill="#58595B"/><polygon points="203.7 66.1 198.9 66.1 198.9 57 203.5 57 203.5 57.9 199.8 57.9 199.8 60.9 203.3 60.9 203.3 61.8 199.8 61.8 199.8 65.3 203.7 65.3" fill="#58595B"/><path d="m209.5 66.2c-1.4 0-2.4-0.4-3.2-1.2s-1.3-2-1.3-3.4c0-2.3 1.5-4.7 4.7-4.7 1 0 1.8 0.3 2.1 0.4l0.1 0.1-0.3 0.8-0.2-0.1c-0.5-0.2-1.1-0.4-1.8-0.4-2.3 0-3.7 1.5-3.7 3.8 0 2.4 1.3 3.8 3.6 3.8 0.9 0 1.4-0.1 1.7-0.2v-2.8h-2v-0.8h3v4.2h-0.1c-0.3 0.2-1.3 0.5-2.6 0.5z" fill="#58595B"/><polygon points="219.3 66.1 214.5 66.1 214.5 57 215.4 57 215.4 65.3 219.3 65.3" fill="#58595B"/><rect y="57" x="221" height="9.1" width=".9" fill="#58595B"/><path d="m229.8 66.2c-0.8 0-1.7-0.3-2.2-0.6l-0.1-0.1 0.4-0.8 0.2 0.1c0.5 0.3 1.2 0.5 1.8 0.5 1.2 0 2-0.6 2-1.7 0-0.9-0.5-1.4-1.7-1.9-1.6-0.6-2.4-1.4-2.4-2.6 0-1.4 1.1-2.4 2.7-2.4 0.9 0 1.5 0.2 1.8 0.4l0.1 0.1-0.4 0.8-0.2-0.1c-0.2-0.2-0.8-0.4-1.4-0.4-1.4 0-1.7 0.9-1.7 1.4 0 0.8 0.4 1.3 1.7 1.8 1.4 0.6 2.3 1.2 2.3 2.7 0 2-1.5 2.8-2.9 2.8z" fill="#58595B"/><polygon points="237.4 66.1 236.4 66.1 236.4 57.9 233.6 57.9 233.6 57 240.2 57 240.2 57.9 237.4 57.9" fill="#58595B"/><path d="m244.6 66.2c-2.7 0-3.1-2.3-3.1-3.7v-5.5h0.9v5.4c0 1.9 0.8 2.9 2.2 2.9 1.5 0 2.3-1 2.3-2.9v-5.4h0.9v5.4c0.1 3.5-2.2 3.8-3.2 3.8z" fill="#58595B"/><path d="m256.4 58.2c-0.8-0.8-2-1.2-3.6-1.2-0.8 0-1.5 0.1-2.3 0.2h-0.1v8.9h0.1c0.6 0 1.2 0.1 2 0.1 1.7 0 3.1-0.5 3.9-1.4s1.2-2 1.2-3.4-0.4-2.4-1.2-3.2zm-3.8 7.1h-1.2v-7.3c0.3-0.1 0.8-0.1 1.4-0.1 1.3 0 2.3 0.3 3 1 0.6 0.6 0.9 1.5 0.9 2.6-0.1 2.4-1.5 3.8-4.1 3.8z" fill="#58595B"/><rect y="57" x="259.2" height="9.1" width=".9" fill="#58595B"/><rect y="57" x="274.7" height="9.1" width=".9" fill="#58595B"/><path d="m272 58.2c-0.8-0.8-2-1.2-3.6-1.2-0.8 0-1.5 0.1-2.3 0.2h-0.1v8.9h0.1c0.6 0 1.2 0.1 2 0.1 1.7 0 3.1-0.5 3.9-1.4s1.2-2 1.2-3.4c-0.1-1.4-0.5-2.4-1.2-3.2zm-3.9 7.1h-1.3v-7.3c0.3-0.1 0.8-0.1 1.4-0.1 1.3 0 2.3 0.3 3 1 0.6 0.6 0.9 1.5 0.9 2.6 0.1 2.4-1.4 3.8-4 3.8z" fill="#58595B"/><path d="m127.6 79.1h-0.9v-0.2l-0.3-4.6c-0.1-0.8-0.1-1.8-0.1-2.6-0.3 0.7-0.5 1.5-0.9 2.5l-1.9 4.9h-0.7l-1.8-4.8c-0.4-1-0.6-1.8-0.9-2.5 0 0.8-0.1 1.9-0.2 3.1l-0.3 4.2h-0.9l0.7-9.1h1v0.1l1.9 5c0.3 0.9 0.6 1.6 0.8 2.4 0.2-0.6 0.5-1.4 0.8-2.4l2-5.2h1l0.7 9.2z" fill="#58595B"/><path d="m133.6 69.9c-2.4 0-4.1 2-4.1 4.8 0 2.7 1.6 4.6 4 4.6 2 0 4.1-1.5 4.1-4.8 0-2.7-1.6-4.6-4-4.6zm0 8.5c-2 0-3-1.9-3-3.8s1-3.9 3.1-3.9c2 0 3 1.9 3 3.8-0.1 2.7-1.7 3.9-3.1 3.9z" fill="#58595B"/><path d="m145.8 71.2c-0.8-0.8-2-1.2-3.6-1.2-0.8 0-1.5 0.1-2.3 0.2h-0.1v8.9h0.1c0.7 0.1 1.4 0.1 2 0.1 1.7 0 3.1-0.5 3.9-1.4s1.2-2 1.2-3.4c0-1.3-0.4-2.4-1.2-3.2zm-3.8 7.1h-1.2v-7.3c0.3-0.1 0.8-0.1 1.4-0.1 1.3 0 2.3 0.3 3 1 0.6 0.6 0.9 1.5 0.9 2.6-0.1 2.4-1.5 3.8-4.1 3.8z" fill="#58595B"/><polygon points="154 79.1 149.2 79.1 149.2 70 153.8 70 153.8 70.9 150.1 70.9 150.1 73.9 153.6 73.9 153.6 74.8 150.1 74.8 150.1 78.3 154 78.3" fill="#58595B"/><path d="m162.7 79.1h-0.8l-3.4-5.2c-0.5-0.8-1-1.6-1.4-2.2v2.8 4.6h-0.9v-9.1h0.8l3.4 5.2c0.5 0.8 1 1.5 1.3 2.1 0-0.9-0.1-1.7-0.1-2.9v-4.4h0.9v9.1z" fill="#58595B"/><path d="m168.8 70.2v-0.1h-0.8l-3.2 8.9-0.1 0.2h1l1.1-3.1h3.2l1.1 3.1h1l-3.3-9zm-1.7 5l1-2.7c0.1-0.4 0.2-0.7 0.3-1 0.1 0.3 0.2 0.6 0.3 1l1 2.7h-2.6z" fill="#58595B"/><polygon points="182.5 79.1 177.6 79.1 177.6 70 182.3 70 182.3 70.9 178.6 70.9 178.6 73.9 182.1 73.9 182.1 74.8 178.6 74.8 178.6 78.3 182.5 78.3" fill="#58595B"/><path d="m193.9 78.9c-0.2-0.3-0.4-1.1-0.6-2.3-0.2-0.9-0.6-1.5-1.1-1.8 1-0.4 1.5-1.3 1.5-2.3 0-0.6-0.2-1.3-0.7-1.7-0.5-0.5-1.3-0.8-2.5-0.8-0.7 0-1.4 0.1-1.9 0.2h-0.1v8.9h0.9v-4h1.2c1.1 0 1.6 0.5 1.8 1.8 0.2 1.1 0.4 1.9 0.6 2.2v0.1h1l-0.1-0.3zm-3.3-4.6h-1.2v-3.4c0.2 0 0.6-0.1 1.1-0.1 1 0 2.2 0.3 2.2 1.7 0 1.1-0.8 1.8-2.1 1.8z" fill="#58595B"/><polygon points="200.8 79.1 196 79.1 196 70 200.6 70 200.6 70.9 196.9 70.9 196.9 73.9 200.4 73.9 200.4 74.8 196.9 74.8 196.9 78.3 200.8 78.3" fill="#58595B"/><path d="m206.9 79.2c-1.4 0-2.4-0.4-3.2-1.2s-1.3-2-1.3-3.4c0-2.3 1.5-4.7 4.7-4.7 0.9 0 1.7 0.2 2.1 0.4l0.1 0.1-0.3 0.8-0.2-0.1c-0.5-0.2-1.1-0.4-1.8-0.4-2.3 0-3.7 1.5-3.7 3.8 0 2.4 1.3 3.8 3.6 3.8 0.9 0 1.4-0.1 1.7-0.2v-2.8h-2v-0.8h3v4.2h-0.1c-0.3 0.2-1.3 0.5-2.6 0.5z" fill="#58595B"/><path d="m216 79.2c-1.4 0-2.4-0.4-3.2-1.2s-1.3-2-1.3-3.4c0-2.3 1.5-4.7 4.7-4.7 0.9 0 1.7 0.2 2.1 0.4l0.1 0.1-0.3 0.8-0.2-0.1c-0.5-0.2-1.1-0.4-1.8-0.4-2.3 0-3.7 1.5-3.7 3.8 0 2.4 1.3 3.8 3.6 3.8 0.9 0 1.4-0.1 1.7-0.2v-2.8h-2v-0.8h3v4.2h-0.1c-0.4 0.2-1.3 0.5-2.6 0.5z" fill="#58595B"/><rect y="70" x="221.1" height="9.1" width=".9" fill="#58595B"/><path d="m228.4 69.9c-2.4 0-4.1 2-4.1 4.8 0 2.7 1.6 4.6 4 4.6 2 0 4.1-1.5 4.1-4.8 0-2.7-1.6-4.6-4-4.6zm-0.1 8.5c-2 0-3-1.9-3-3.8s1-3.9 3.1-3.9c2 0 3 1.9 3 3.8 0 2.7-1.6 3.9-3.1 3.9z" fill="#58595B"/><polygon points="243.1 79.1 238.3 79.1 238.3 70 242.9 70 242.9 70.9 239.2 70.9 239.2 73.9 242.7 73.9 242.7 74.8 239.2 74.8 239.2 78.3 243.1 78.3" fill="#58595B"/><path d="m253.9 79.1h-0.9v-0.1l-0.3-4.8c0-0.8-0.1-1.7-0.1-2.4-0.3 0.7-0.5 1.5-0.9 2.5l-1.9 4.9h-0.7l-1.8-4.8c-0.3-0.9-0.6-1.8-0.9-2.5 0 0.7-0.1 1.8-0.2 3.1l-0.3 4.2h-0.9l0.7-9.1h1v0.1l1.9 5c0.3 0.9 0.6 1.7 0.8 2.4 0.2-0.7 0.5-1.5 0.8-2.4l2-5.2h1v0.1l0.7 9z" fill="#58595B"/><rect y="70" x="256.4" height="9.1" width=".9" fill="#58595B"/><polygon points="264.9 79.1 260.1 79.1 260.1 70 261 70 261 78.3 264.9 78.3" fill="#58595B"/><rect y="70" x="266.9" height="9.1" width=".9" fill="#58595B"/><path d="m274 70.2v-0.1h-0.8l-3.2 8.9-0.1 0.2h1l1.1-3.1h3.2l1.1 3.1h1l-3.3-9zm-1.8 5l1-2.7c0.1-0.4 0.2-0.7 0.3-1 0.1 0.3 0.2 0.6 0.3 1l1 2.7h-2.6z" fill="#58595B"/></svg>
